 <svg display="none" xmlns="http://www.w3.org/2000/svg">

  <symbol fill="currentColor" id="cloud-moon" viewBox="0 0 16 16">
    <g>
      <path d="M7 8a3.5 3.5 0 0 1 3.5 3.555.5.5 0 0 0 .625.492A1.503 1.503 0 0 1 13 13.5a1.5 1.5 0 0 1-1.5 1.5H3a2 2 0 1 1 .1-3.998.5.5 0 0 0 .509-.375A3.502 3.502 0 0 1 7 8zm4.473 3a4.5 4.5 0 0 0-8.72-.99A3 3 0 0 0 3 16h8.5a2.5 2.5 0 0 0 0-5h-.027z"/>
      <path d="M11.286 1.778a.5.5 0 0 0-.565-.755 4.595 4.595 0 0 0-3.18 5.003 5.46 5.46 0 0 1 1.055.209A3.603 3.603 0 0 1 9.83 2.617a4.593 4.593 0 0 0 4.31 5.744 3.576 3.576 0 0 1-2.241.634c.162.317.295.652.394 1a4.59 4.59 0 0 0 3.624-2.04.5.5 0 0 0-.565-.755 3.593 3.593 0 0 1-4.065-5.422z"/>
    </g>
  </symbol>

  <symbol fill="currentColor" id="sun" viewBox="0 0 16 16">
    <g>
      <path d="M8 11a3 3 0 1 1 0-6 3 3 0 0 1 0 6zm0 1a4 4 0 1 0 0-8 4 4 0 0 0 0 8zM8 0a.5.5 0 0 1 .5.5v2a.5.5 0 0 1-1 0v-2A.5.5 0 0 1 8 0zm0 13a.5.5 0 0 1 .5.5v2a.5.5 0 0 1-1 0v-2A.5.5 0 0 1 8 13zm8-5a.5.5 0 0 1-.5.5h-2a.5.5 0 0 1 0-1h2a.5.5 0 0 1 .5.5zM3 8a.5.5 0 0 1-.5.5h-2a.5.5 0 0 1 0-1h2A.5.5 0 0 1 3 8zm10.657-5.657a.5.5 0 0 1 0 .707l-1.414 1.415a.5.5 0 1 1-.707-.708l1.414-1.414a.5.5 0 0 1 .707 0zm-9.193 9.193a.5.5 0 0 1 0 .707L3.05 13.657a.5.5 0 0 1-.707-.707l1.414-1.414a.5.5 0 0 1 .707 0zm9.193 2.121a.5.5 0 0 1-.707 0l-1.414-1.414a.5.5 0 0 1 .707-.707l1.414 1.414a.5.5 0 0 1 0 .707zM4.464 4.465a.5.5 0 0 1-.707 0L2.343 3.05a.5.5 0 1 1 .707-.707l1.414 1.414a.5.5 0 0 1 0 .708z"/>
    </g>
  </symbol>

  <symbol fill="currentColor" id="close" viewBox="0 0 16 16">
    <g>
      <path d="M2.146 2.854a.5.5 0 1 1 .708-.708L8 7.293l5.146-5.147a.5.5 0 0 1 .708.708L8.707 8l5.147 5.146a.5.5 0 0 1-.708.708L8 8.707l-5.146 5.147a.5.5 0 0 1-.708-.708L7.293 8 2.146 2.854Z"/>
    </g>
  </symbol>

  <symbol id="arrow-up" fill="currentColor" viewBox="0 0 16 16">
    <g>
      <path fill-rule="evenodd" d="M8 15a.5.5 0 0 0 .5-.5V2.707l3.146 3.147a.5.5 0 0 0 .708-.708l-4-4a.5.5 0 0 0-.708 0l-4 4a.5.5 0 1 0 .708.708L7.5 2.707V14.5a.5.5 0 0 0 .5.5z"/>
    </g>
  </symbol>

  <symbol fill="currentColor" id="logo" viewBox="0 0 16 16">
    <g>
      <path d="M14 1a1 1 0 0 1 1 1v12a1 1 0 0 1-1 1H2a1 1 0 0 1-1-1V2a1 1 0 0 1 1-1h12zM2 0a2 2 0 0 0-2 2v12a2 2 0 0 0 2 2h12a2 2 0 0 0 2-2V2a2 2 0 0 0-2-2H2z"/>
    </g>
  </symbol>

  <symbol fill="currentColor" id="burger" viewBox="0 0 16 16">
    <g>
      <path fill-rule="evenodd" d="M2.5 12a.5.5 0 0 1 .5-.5h10a.5.5 0 0 1 0 1H3a.5.5 0 0 1-.5-.5zm0-4a.5.5 0 0 1 .5-.5h10a.5.5 0 0 1 0 1H3a.5.5 0 0 1-.5-.5zm0-4a.5.5 0 0 1 .5-.5h10a.5.5 0 0 1 0 1H3a.5.5 0 0 1-.5-.5z"/>
    </g>
  </symbol>

</svg>
